# xmcd
#
# Track frame offsets: 
#        150
#        16633
#        32394
#        61316
#        81040
#        102217
#        125182
#        149873
#        177915
#        191034
#        209556
#        244758
#
# Disc length: 3476 seconds
#
# Revision: 0
# Processed by: cddbd v1.5.2PL0 Copyright (c) Steve Scherf et al.
# Submitted via: ExactAudioCopy v0.99pb4
#
DISCID=a90d920c
DTITLE=Kokomo - In the Well
DYEAR=2008
DGENRE=Blues
TTITLE0=On a night like this
TTITLE1=It takes a lot to laugh, it takes a train to cry
TTITLE2=Things have changed
TTITLE3=You're gonna make me lonesome when you go
TTITLE4=Dignity
TTITLE5=Absolutely sweet Marie
TTITLE6=Highway 61 Revisited
TTITLE7=Try'in to get to Heaven
TTITLE8=Down in the flood
TTITLE9=Queen Jane approximately
TTITLE10=Tangled up in blue
TTITLE11=Cat's in the well
EXTD=
EXTT0=
EXTT1=
EXTT2=
EXTT3=
EXTT4=
EXTT5=
EXTT6=
EXTT7=
EXTT8=
EXTT9=
EXTT10=
EXTT11=
PLAYORDER=
